<?xml version="1.0" encoding="UTF-8" standalone="no"?>
<!-- Created with Inkscape (http://www.inkscape.org/) -->

<svg
   width="25mm"
   height="25mm"
   viewBox="0 0 25.000062 25.000138"
   version="1.1"
   id="svg1"
   inkscape:version="1.3.2 (091e20ef0f, 2023-11-25)"
   sodipodi:docname="perroquet_tête.svg"
   inkscape:export-filename="perroquet.png"
   inkscape:export-xdpi="96"
   inkscape:export-ydpi="96"
   xmlns:inkscape="http://www.inkscape.org/namespaces/inkscape"
   xmlns:sodipodi="http://sodipodi.sourceforge.net/DTD/sodipodi-0.dtd"
   xmlns="http://www.w3.org/2000/svg"
   xmlns:svg="http://www.w3.org/2000/svg">
  <sodipodi:namedview
     id="namedview1"
     pagecolor="#ffffff"
     bordercolor="#000000"
     borderopacity="0.25"
     inkscape:showpageshadow="2"
     inkscape:pageopacity="0.0"
     inkscape:pagecheckerboard="0"
     inkscape:deskcolor="#d1d1d1"
     inkscape:document-units="mm"
     showgrid="false"
     showguides="true"
     inkscape:zoom="5.6568542"
     inkscape:cx="45.873553"
     inkscape:cy="24.218407"
     inkscape:window-width="1920"
     inkscape:window-height="1011"
     inkscape:window-x="0"
     inkscape:window-y="0"
     inkscape:window-maximized="1"
     inkscape:current-layer="layer1">
    <inkscape:grid
       id="grid1"
       units="px"
       originx="0"
       originy="0"
       spacingx="0.26458334"
       spacingy="0.26458334"
       empcolor="#0099e5"
       empopacity="0.30196078"
       color="#0099e5"
       opacity="0.14901961"
       empspacing="5"
       dotted="false"
       gridanglex="30"
       gridanglez="30"
       visible="false" />
  </sodipodi:namedview>
  <defs
     id="defs1" />
  <g
     inkscape:label="Calque 1"
     inkscape:groupmode="layer"
     id="layer1">
    <g
       id="g4"
       inkscape:label="tête"
       inkscape:export-filename="./perroquet_tête.png"
       inkscape:export-xdpi="96"
       inkscape:export-ydpi="96"
       transform="translate(-16.500034,-2.899598)">
      <circle
         style="fill:#9141ac;stroke:none;stroke-width:2.5;stroke-linecap:round;stroke-miterlimit:3.2;stroke-dasharray:none;stroke-opacity:1"
         id="circle69"
         r="12.291248"
         cy="54.239586"
         cx="67.73333"
         transform="translate(-38.733265,-38.839919)"
         inkscape:label="tête_base" />
      <path
         id="circle94"
         style="fill:#dc8add;stroke:none;stroke-width:2.5;stroke-linecap:round;stroke-miterlimit:3.2;stroke-dasharray:none;stroke-opacity:1"
         d="m 67.733361,59.061327 a 12.291248,12.291248 0 0 0 -8.781425,3.734677 12.291248,12.291248 0 0 0 8.781425,3.734676 12.291248,12.291248 0 0 0 8.801062,-3.754313 12.291248,12.291248 0 0 0 -8.801062,-3.71504 z"
         transform="translate(-38.733265,-38.839919)"
         inkscape:label="menton" />
      <g
         id="g2"
         inkscape:label="yeux">
        <g
           id="g77"
           transform="translate(-38.523976,-39.015034)"
           inkscape:label="oeil_gauche">
          <g
             id="g76"
             transform="translate(0.008064)"
             inkscape:label="oeil_g">
            <path
               id="path75"
               style="fill:#ffffff;stroke:none;stroke-width:2.5;stroke-linecap:round;stroke-miterlimit:3.2;stroke-dasharray:none;stroke-opacity:1"
               d="m 62.565896,48.815041 c -1.126476,5e-6 -2.039664,0.913193 -2.039668,2.039669 v 2.357479 c 4e-6,1.126476 0.913192,2.039664 2.039668,2.039669 1.126476,-4e-6 2.039665,-0.913193 2.039669,-2.039669 V 50.85471 c -4e-6,-1.126476 -0.913193,-2.039665 -2.039669,-2.039669 z"
               sodipodi:nodetypes="sccsccs" />
            <path
               id="path76"
               style="fill:#3d3846;stroke:none;stroke-width:1.58103;stroke-linecap:round;stroke-miterlimit:3.2;stroke-dasharray:none;stroke-opacity:1"
               d="m 62.565896,49.998086 c -0.712398,3e-6 -1.28991,0.577515 -1.289912,1.289913 V 52.7789 c 2e-6,0.712398 0.577514,1.28991 1.289912,1.289913 0.712398,-3e-6 1.289911,-0.577515 1.289913,-1.289913 v -1.490901 c -2e-6,-0.712398 -0.577515,-1.28991 -1.289913,-1.289913 z"
               sodipodi:nodetypes="sccsccs" />
          </g>
          <path
             style="fill:none;stroke:#241f31;stroke-width:1.20001;stroke-linecap:round;stroke-miterlimit:3.2;stroke-dasharray:none;stroke-opacity:1"
             d="m 60.060419,47.411618 c 0.0054,-0.0024 1.109289,-1.003773 2.505477,-1.004685 1.376147,-8.99e-4 2.521606,1.004685 2.521606,1.004685"
             id="path77"
             sodipodi:nodetypes="csc"
             inkscape:label="sourcil_g" />
        </g>
        <g
           id="g80"
           transform="translate(-39.681595,-39.015034)"
           inkscape:label="oeil_droit">
          <g
             id="g79"
             inkscape:label="oeil_d">
            <path
               id="path78"
               style="fill:#ffffff;stroke:none;stroke-width:2.5;stroke-linecap:round;stroke-miterlimit:3.2;stroke-dasharray:none;stroke-opacity:1"
               d="m 73.212587,48.815041 c -1.126476,5e-6 -2.039664,0.913193 -2.039668,2.039669 v 2.357479 c 4e-6,1.126476 0.913192,2.039664 2.039668,2.039669 1.126476,-4e-6 2.039665,-0.913193 2.039669,-2.039669 V 50.85471 c -4e-6,-1.126476 -0.913193,-2.039665 -2.039669,-2.039669 z"
               sodipodi:nodetypes="sccsccs" />
            <path
               id="path79"
               style="fill:#3d3846;stroke:none;stroke-width:1.58103;stroke-linecap:round;stroke-miterlimit:3.2;stroke-dasharray:none;stroke-opacity:1"
               d="m 73.212587,49.998086 c -0.712398,3e-6 -1.28991,0.577515 -1.289912,1.289913 V 52.7789 c 2e-6,0.712398 0.577514,1.28991 1.289912,1.289913 0.712398,-3e-6 1.289911,-0.577515 1.289913,-1.289913 v -1.490901 c -2e-6,-0.712398 -0.577515,-1.28991 -1.289913,-1.289913 z"
               sodipodi:nodetypes="sccsccs" />
          </g>
          <path
             style="fill:none;stroke:#241f31;stroke-width:1.20001;stroke-linecap:round;stroke-miterlimit:3.2;stroke-dasharray:none;stroke-opacity:1"
             d="m 70.699046,47.411618 c 0.0054,-0.0024 1.109289,-1.003773 2.505477,-1.004685 1.376147,-8.99e-4 2.521606,1.004685 2.521606,1.004685"
             id="path80"
             sodipodi:nodetypes="csc"
             inkscape:label="sourcil_d" />
        </g>
      </g>
      <g
         id="g94"
         transform="matrix(-1,0,0,1,96.899335,-38.839919)"
         style="fill:#e5a50a"
         inkscape:label="bec">
        <path
           id="path94"
           style="fill:#e5a50a;stroke:none;stroke-width:1.71875;stroke-linecap:round;stroke-miterlimit:3.2;stroke-dasharray:none;stroke-opacity:1"
           d="m 67.733336,54.801824 c -4.848889,0 -1.464956,8.140133 0,8.137604 z"
           sodipodi:nodetypes="ccc" />
        <path
           id="path92"
           style="fill:#f5c211;stroke:none;stroke-width:1.71875;stroke-linecap:round;stroke-miterlimit:3.2;stroke-dasharray:none;stroke-opacity:1"
           d="m 67.733336,54.801824 c -4.848889,0 -1.464956,8.140133 0,8.137604 z"
           sodipodi:nodetypes="ccc"
           transform="matrix(-1,0,0,1,135.45612,1.5090857e-7)" />
      </g>
    </g>
  </g>
</svg>
