<svg width="433" height="523" viewBox="0 0 433 523" fill="none" xmlns="http://www.w3.org/2000/svg">
<path d="M330.076 271.82C330.076 271.82 304.891 499.776 216.5 499.776C128.623 499.776 102.924 271.82 102.924 271.82H330.076Z" fill="#DC8ADD"/>
<path d="M216.5 439.848C279.227 439.848 330.076 364.619 330.076 271.82C330.076 179.02 279.227 103.791 216.5 103.791C153.774 103.791 102.924 179.02 102.924 271.82C102.924 364.619 153.774 439.848 216.5 439.848Z" fill="#813D9C"/>
<path d="M216.5 367.302C246.179 367.302 270.239 324.553 270.239 271.82C270.239 219.086 246.179 176.338 216.5 176.338C186.821 176.338 162.761 219.086 162.761 271.82C162.761 324.553 186.821 367.302 216.5 367.302Z" fill="#C061CB"/>
<path d="M172.805 116.439C130.218 142.332 102.412 203.701 102.402 271.819C102.472 314.408 113.47 355.369 133.173 386.419C197.766 397.711 198.723 252.189 198.723 243.549C198.717 190.126 198.119 141.139 172.805 116.439Z" fill="#613583"/>
<path d="M198.646 247.718L104.343 302.2C108.295 333.567 118.217 362.85 133.173 386.419C194.06 397.063 198.348 269.757 198.646 247.718Z" fill="#9141AC"/>
<path d="M188.492 329.822L122.109 365.952C125.417 373.145 129.101 380.001 133.174 386.419C163.464 391.714 179.74 362.863 188.492 329.822Z" fill="#DC8ADD"/>
<path d="M260.236 116.439C302.823 142.332 330.629 203.701 330.639 271.819C330.569 314.408 319.571 355.369 299.868 386.419C235.275 397.711 234.318 252.189 234.318 243.549C234.324 190.126 234.922 141.139 260.236 116.439Z" fill="#613583"/>
<path d="M234.395 247.718L328.698 302.2C324.746 333.567 314.824 362.85 299.868 386.419C238.981 397.063 234.693 269.757 234.395 247.718Z" fill="#9141AC"/>
<path d="M244.549 329.822L310.932 365.952C307.624 373.145 303.94 380.001 299.867 386.419C269.577 391.714 253.301 362.863 244.549 329.822Z" fill="#DC8ADD"/>
<path d="M216.5 206.889C267.178 206.889 308.26 165.775 308.26 115.057C308.26 64.339 267.178 23.2241 216.5 23.2241C165.823 23.2241 124.74 64.339 124.74 115.057C124.74 165.775 165.823 206.889 216.5 206.889Z" fill="#9141AC"/>
<path d="M28.8525 439.848H404.148Z" fill="#C0BFBC"/>
<path d="M28.8525 439.848H404.148" stroke="#A5A5A5" stroke-width="9.44876" stroke-miterlimit="3.2" stroke-linecap="round"/>
<path d="M128.623 429.734H175.84Z" fill="#986A44"/>
<path d="M128.623 429.734H175.84" stroke="#B5835A" stroke-width="9.44876" stroke-miterlimit="3.2" stroke-linecap="round"/>
<path d="M253.649 429.734H300.866Z" fill="#986A44"/>
<path d="M253.649 429.734H300.866" stroke="#B5835A" stroke-width="9.44876" stroke-miterlimit="3.2" stroke-linecap="round"/>
<path d="M216.501 151.082C204.267 151.124 192.164 153.615 180.906 158.406C169.647 163.198 159.46 170.195 150.943 178.985C159.46 187.775 169.647 194.772 180.906 199.564C192.164 204.356 204.267 206.846 216.501 206.888C228.77 206.847 240.907 204.343 252.192 199.525C263.478 194.707 273.683 187.673 282.205 178.838C273.659 170.057 263.442 163.077 252.158 158.31C240.873 153.543 228.749 151.086 216.501 151.082Z" fill="#DC8ADD"/>
<path d="M217.817 119.257C181.618 119.257 206.881 180.076 217.817 180.057V119.257Z" fill="#F5C211"/>
<path d="M179.546 73.2196C171.137 73.2196 164.319 80.0424 164.319 88.4588V106.072C164.319 114.489 171.137 121.312 179.546 121.312C187.956 121.312 194.773 114.489 194.774 106.072V88.4588C194.773 80.0424 187.956 73.2196 179.546 73.2196Z" fill="white"/>
<rect width="5.9281" height="29.6405" rx="2.96405" transform="matrix(0.706827 -0.707387 0.706827 0.707387 165.922 89.1965)" fill="#3D3846"/>
<rect width="5.9281" height="29.6405" rx="2.96405" transform="matrix(0.706827 0.707387 -0.706827 0.707387 186.873 85.0031)" fill="#3D3846"/>
<path d="M160.781 62.7341C160.822 62.7161 169.063 55.2345 179.486 55.2277C189.759 55.2209 198.311 62.7341 198.311 62.7341" stroke="#241F31" stroke-width="4.53544" stroke-miterlimit="3.2" stroke-linecap="round"/>
<path d="M250.326 73.2196C241.916 73.2196 235.099 80.0424 235.099 88.4588V106.072C235.099 114.489 241.916 121.312 250.326 121.312C258.735 121.312 265.553 114.489 265.553 106.072V88.4588C265.553 80.0424 258.735 73.2196 250.326 73.2196Z" fill="white"/>
<rect width="5.9281" height="29.6405" rx="2.96405" transform="matrix(0.706827 -0.707387 0.706827 0.707387 237.031 89.1965)" fill="#3D3846"/>
<rect width="5.9281" height="29.6405" rx="2.96405" transform="matrix(0.706827 0.707387 -0.706827 0.707387 257.981 85.0031)" fill="#3D3846"/>
<path d="M231.561 62.7341C231.601 62.7161 239.842 55.2345 250.265 55.2277C260.539 55.2209 269.09 62.7341 269.09 62.7341" stroke="#241F31" stroke-width="4.53544" stroke-miterlimit="3.2" stroke-linecap="round"/>
<path d="M217.739 119.257C253.938 119.257 228.676 180.076 217.739 180.057V119.257Z" fill="#E5A50A"/>
<g style="mix-blend-mode:saturation">
<path d="M330.076 271.82C330.076 271.82 304.891 499.776 216.5 499.776C128.623 499.776 102.924 271.82 102.924 271.82H330.076Z" fill="white"/>
<path d="M216.5 439.848C279.227 439.848 330.076 364.619 330.076 271.82C330.076 179.02 279.227 103.791 216.5 103.791C153.774 103.791 102.924 179.02 102.924 271.82C102.924 364.619 153.774 439.848 216.5 439.848Z" fill="white"/>
<path d="M216.5 367.302C246.179 367.302 270.239 324.553 270.239 271.82C270.239 219.086 246.179 176.338 216.5 176.338C186.821 176.338 162.761 219.086 162.761 271.82C162.761 324.553 186.821 367.302 216.5 367.302Z" fill="white"/>
<path d="M172.805 116.439C130.218 142.332 102.412 203.701 102.402 271.819C102.472 314.408 113.47 355.369 133.173 386.419C197.766 397.711 198.723 252.189 198.723 243.549C198.717 190.126 198.119 141.139 172.805 116.439Z" fill="white"/>
<path d="M198.646 247.718L104.343 302.2C108.295 333.567 118.217 362.85 133.173 386.419C194.06 397.063 198.348 269.757 198.646 247.718Z" fill="white"/>
<path d="M188.492 329.822L122.109 365.952C125.417 373.145 129.101 380.001 133.174 386.419C163.464 391.714 179.74 362.863 188.492 329.822Z" fill="white"/>
<path d="M260.236 116.439C302.823 142.332 330.629 203.701 330.639 271.819C330.569 314.408 319.571 355.369 299.868 386.419C235.275 397.711 234.318 252.189 234.318 243.549C234.324 190.126 234.922 141.139 260.236 116.439Z" fill="white"/>
<path d="M234.395 247.718L328.698 302.2C324.746 333.567 314.824 362.85 299.868 386.419C238.981 397.063 234.693 269.757 234.395 247.718Z" fill="white"/>
<path d="M244.549 329.822L310.932 365.952C307.624 373.145 303.94 380.001 299.867 386.419C269.577 391.714 253.301 362.863 244.549 329.822Z" fill="white"/>
<path d="M216.5 206.889C267.178 206.889 308.26 165.775 308.26 115.057C308.26 64.339 267.178 23.2241 216.5 23.2241C165.823 23.2241 124.74 64.339 124.74 115.057C124.74 165.775 165.823 206.889 216.5 206.889Z" fill="white"/>
<path d="M28.8525 439.848H404.148Z" fill="white"/>
<path d="M28.8525 439.848H404.148" stroke="white" stroke-width="9.44876" stroke-miterlimit="3.2" stroke-linecap="round"/>
<path d="M128.623 429.734H175.84Z" fill="white"/>
<path d="M128.623 429.734H175.84" stroke="white" stroke-width="9.44876" stroke-miterlimit="3.2" stroke-linecap="round"/>
<path d="M253.649 429.734H300.866Z" fill="white"/>
<path d="M253.649 429.734H300.866" stroke="white" stroke-width="9.44876" stroke-miterlimit="3.2" stroke-linecap="round"/>
<path d="M216.501 151.082C204.267 151.124 192.164 153.615 180.906 158.406C169.647 163.198 159.46 170.195 150.943 178.985C159.46 187.775 169.647 194.772 180.906 199.564C192.164 204.356 204.267 206.846 216.501 206.888C228.77 206.847 240.907 204.343 252.192 199.525C263.478 194.707 273.683 187.673 282.205 178.838C273.659 170.057 263.442 163.077 252.158 158.31C240.873 153.543 228.749 151.086 216.501 151.082Z" fill="white"/>
<path d="M217.817 119.257C181.618 119.257 206.881 180.076 217.817 180.057V119.257Z" fill="white"/>
<path d="M179.546 73.2196C171.137 73.2196 164.319 80.0424 164.319 88.4588V106.072C164.319 114.489 171.137 121.312 179.546 121.312C187.956 121.312 194.773 114.489 194.774 106.072V88.4588C194.773 80.0424 187.956 73.2196 179.546 73.2196Z" fill="white"/>
<rect width="5.9281" height="29.6405" rx="2.96405" transform="matrix(0.706827 -0.707387 0.706827 0.707387 165.922 89.1965)" fill="white"/>
<rect width="5.9281" height="29.6405" rx="2.96405" transform="matrix(0.706827 0.707387 -0.706827 0.707387 186.873 85.0031)" fill="white"/>
<path d="M160.781 62.7341C160.822 62.7161 169.063 55.2345 179.486 55.2277C189.759 55.2209 198.311 62.7341 198.311 62.7341" stroke="white" stroke-width="4.53544" stroke-miterlimit="3.2" stroke-linecap="round"/>
<path d="M250.326 73.2196C241.916 73.2196 235.099 80.0424 235.099 88.4588V106.072C235.099 114.489 241.916 121.312 250.326 121.312C258.735 121.312 265.553 114.489 265.553 106.072V88.4588C265.553 80.0424 258.735 73.2196 250.326 73.2196Z" fill="white"/>
<rect width="5.9281" height="29.6405" rx="2.96405" transform="matrix(0.706827 -0.707387 0.706827 0.707387 237.031 89.1965)" fill="white"/>
<rect width="5.9281" height="29.6405" rx="2.96405" transform="matrix(0.706827 0.707387 -0.706827 0.707387 257.981 85.0031)" fill="white"/>
<path d="M231.561 62.7341C231.601 62.7161 239.842 55.2345 250.265 55.2277C260.539 55.2209 269.09 62.7341 269.09 62.7341" stroke="white" stroke-width="4.53544" stroke-miterlimit="3.2" stroke-linecap="round"/>
<path d="M217.739 119.257C253.938 119.257 228.676 180.076 217.739 180.057V119.257Z" fill="white"/>
</g>
</svg>
