<?xml version="1.0" encoding="UTF-8" standalone="no"?>
<!-- Created with Inkscape (http://www.inkscape.org/) -->

<svg
   width="58mm"
   height="70mm"
   viewBox="0 0 58.000136 70.000406"
   version="1.1"
   id="svg1"
   inkscape:version="1.3.2 (091e20ef0f, 2023-11-25)"
   sodipodi:docname="perroquet_only.svg"
   inkscape:export-filename="perroquet.png"
   inkscape:export-xdpi="96"
   inkscape:export-ydpi="96"
   xmlns:inkscape="http://www.inkscape.org/namespaces/inkscape"
   xmlns:sodipodi="http://sodipodi.sourceforge.net/DTD/sodipodi-0.dtd"
   xmlns="http://www.w3.org/2000/svg"
   xmlns:svg="http://www.w3.org/2000/svg">
  <sodipodi:namedview
     id="namedview1"
     pagecolor="#ffffff"
     bordercolor="#000000"
     borderopacity="0.25"
     inkscape:showpageshadow="2"
     inkscape:pageopacity="0.0"
     inkscape:pagecheckerboard="0"
     inkscape:deskcolor="#d1d1d1"
     inkscape:document-units="mm"
     showgrid="false"
     showguides="true"
     inkscape:zoom="2.8284271"
     inkscape:cx="86.443804"
     inkscape:cy="137.53227"
     inkscape:window-width="1920"
     inkscape:window-height="1011"
     inkscape:window-x="0"
     inkscape:window-y="0"
     inkscape:window-maximized="1"
     inkscape:current-layer="layer1">
    <inkscape:grid
       id="grid1"
       units="px"
       originx="0"
       originy="0"
       spacingx="0.26458334"
       spacingy="0.26458334"
       empcolor="#0099e5"
       empopacity="0.30196078"
       color="#0099e5"
       opacity="0.14901961"
       empspacing="5"
       dotted="false"
       gridanglex="30"
       gridanglez="30"
       visible="false" />
  </sodipodi:namedview>
  <defs
     id="defs1" />
  <g
     inkscape:label="Calque 1"
     inkscape:groupmode="layer"
     id="layer1">
    <g
       id="g81"
       transform="translate(-38.733265,-38.83992)"
       inkscape:label="tricolor">
      <path
         id="path67"
         style="fill:#dc8add;stroke-width:2.5;stroke-linecap:round;stroke-miterlimit:3.2"
         d="m 82.946873,75.221352 c 0,0 -3.373628,30.510558 -15.213543,30.510558 -11.771156,0 -15.213543,-30.510558 -15.213543,-30.510558 z"
         sodipodi:nodetypes="cscc"
         inkscape:export-filename="perroquet v2.png"
         inkscape:export-xdpi="96"
         inkscape:export-ydpi="96" />
      <ellipse
         style="fill:#813d9c;stroke:none;stroke-width:2.5;stroke-linecap:round;stroke-miterlimit:3.2;stroke-dasharray:none;stroke-opacity:1"
         id="ellipse67"
         cx="67.73333"
         cy="75.221352"
         rx="15.213543"
         ry="22.489584" />
      <ellipse
         style="fill:#c061cb;stroke:none;stroke-width:1.18289;stroke-linecap:round;stroke-miterlimit:3.2;stroke-dasharray:none;stroke-opacity:1"
         id="ellipse68"
         cx="67.73333"
         cy="75.221352"
         rx="7.1983595"
         ry="12.779677" />
      <g
         id="g89">
        <path
           id="path68"
           style="fill:#613583;stroke:none;stroke-width:2.5;stroke-linecap:round;stroke-miterlimit:3.2;stroke-dasharray:none;stroke-opacity:1"
           d="m 61.880351,54.424585 c -5.704481,3.465675 -9.429142,11.679564 -9.430432,20.796663 0.0093,5.700274 1.482474,11.182669 4.121712,15.338599 8.65227,1.511283 8.780452,-17.965938 8.780455,-19.122344 -8.73e-4,-7.150398 -0.08086,-13.706987 -3.471735,-17.012918 z"
           sodipodi:nodetypes="ccccc" />
        <path
           id="path83"
           style="fill:#9141ac;stroke:none;stroke-width:2.5;stroke-linecap:round;stroke-miterlimit:3.2;stroke-dasharray:none;stroke-opacity:1"
           d="m 65.341762,71.995493 -12.631857,7.292102 c 0.529392,4.198272 1.858475,8.117665 3.861801,11.272243 8.155848,1.424573 8.730137,-15.614607 8.770056,-18.564345 z" />
        <path
           id="path86"
           style="fill:#dc8add;stroke:none;stroke-width:2.5;stroke-linecap:round;stroke-miterlimit:3.2;stroke-dasharray:none;stroke-opacity:1"
           d="m 63.981631,82.984548 -8.892013,4.835907 c 0.443023,0.962716 0.936522,1.880296 1.482088,2.739383 4.057384,0.708699 6.237576,-3.152847 7.409925,-7.57529 z" />
      </g>
      <g
         id="g91"
         transform="matrix(-1,0,0,1,135.47214,0)">
        <path
           id="path89"
           style="fill:#613583;stroke:none;stroke-width:2.5;stroke-linecap:round;stroke-miterlimit:3.2;stroke-dasharray:none;stroke-opacity:1"
           d="m 61.880351,54.424585 c -5.704481,3.465675 -9.429142,11.679564 -9.430432,20.796663 0.0093,5.700274 1.482474,11.182669 4.121712,15.338599 8.65227,1.511283 8.780452,-17.965938 8.780455,-19.122344 -8.73e-4,-7.150398 -0.08086,-13.706987 -3.471735,-17.012918 z"
           sodipodi:nodetypes="ccccc" />
        <path
           id="path90"
           style="fill:#9141ac;stroke:none;stroke-width:2.5;stroke-linecap:round;stroke-miterlimit:3.2;stroke-dasharray:none;stroke-opacity:1"
           d="m 65.341762,71.995493 -12.631857,7.292102 c 0.529392,4.198272 1.858475,8.117665 3.861801,11.272243 8.155848,1.424573 8.730137,-15.614607 8.770056,-18.564345 z" />
        <path
           id="path91"
           style="fill:#dc8add;stroke:none;stroke-width:2.5;stroke-linecap:round;stroke-miterlimit:3.2;stroke-dasharray:none;stroke-opacity:1"
           d="m 63.981631,82.984548 -8.892013,4.835907 c 0.443023,0.962716 0.936522,1.880296 1.482088,2.739383 4.057384,0.708699 6.237576,-3.152847 7.409925,-7.57529 z" />
      </g>
      <circle
         style="fill:#9141ac;stroke:none;stroke-width:2.5;stroke-linecap:round;stroke-miterlimit:3.2;stroke-dasharray:none;stroke-opacity:1"
         id="circle69"
         r="12.291248"
         cy="54.239586"
         cx="67.73333" />
      <path
         style="fill:#c0bfbc;stroke:#a5a5a5;stroke-width:2.5;stroke-linecap:round;stroke-linejoin:miter;stroke-miterlimit:3.2;stroke-dasharray:none;stroke-opacity:1"
         d="M 42.597915,97.710936 H 92.868751"
         id="path70"
         sodipodi:nodetypes="cc" />
      <path
         style="fill:#986a44;stroke:#b5835a;stroke-width:2.5;stroke-linecap:round;stroke-miterlimit:3.2;stroke-dasharray:none;stroke-opacity:1"
         d="m 55.962174,96.357244 h 6.32465"
         id="path71" />
      <path
         style="fill:#986a44;stroke:#b5835a;stroke-width:2.5;stroke-linecap:round;stroke-miterlimit:3.2;stroke-dasharray:none;stroke-opacity:1"
         d="m 72.709494,96.357244 h 6.32465"
         id="path72" />
      <path
         id="circle94"
         style="fill:#dc8add;stroke:none;stroke-width:2.5;stroke-linecap:round;stroke-miterlimit:3.2;stroke-dasharray:none;stroke-opacity:1"
         d="m 67.733361,59.061327 a 12.291248,12.291248 0 0 0 -8.781425,3.734677 12.291248,12.291248 0 0 0 8.781425,3.734676 12.291248,12.291248 0 0 0 8.801062,-3.754313 12.291248,12.291248 0 0 0 -8.801062,-3.71504 z" />
      <g
         id="g74"
         transform="translate(0.17647883)"
         style="fill:#f5c211">
        <path
           id="path92"
           style="fill:#f5c211;stroke:none;stroke-width:1.71875;stroke-linecap:round;stroke-miterlimit:3.2;stroke-dasharray:none;stroke-opacity:1"
           d="m 67.733336,54.801824 c -4.848889,0 -1.464956,8.140133 0,8.137604 z"
           sodipodi:nodetypes="ccc" />
      </g>
      <g
         id="g77"
         transform="translate(0.20928997,-0.17511433)">
        <g
           id="g76"
           transform="translate(0.008064)">
          <path
             id="path75"
             style="fill:#ffffff;stroke:none;stroke-width:2.5;stroke-linecap:round;stroke-miterlimit:3.2;stroke-dasharray:none;stroke-opacity:1"
             d="m 62.565896,48.815041 c -1.126476,5e-6 -2.039664,0.913193 -2.039668,2.039669 v 2.357479 c 4e-6,1.126476 0.913192,2.039664 2.039668,2.039669 1.126476,-4e-6 2.039665,-0.913193 2.039669,-2.039669 V 50.85471 c -4e-6,-1.126476 -0.913193,-2.039665 -2.039669,-2.039669 z"
             sodipodi:nodetypes="sccsccs" />
          <path
             id="path76"
             style="fill:#3d3846;stroke:none;stroke-width:1.58103;stroke-linecap:round;stroke-miterlimit:3.2;stroke-dasharray:none;stroke-opacity:1"
             d="m 62.565896,49.998086 c -0.712398,3e-6 -1.28991,0.577515 -1.289912,1.289913 V 52.7789 c 2e-6,0.712398 0.577514,1.28991 1.289912,1.289913 0.712398,-3e-6 1.289911,-0.577515 1.289913,-1.289913 v -1.490901 c -2e-6,-0.712398 -0.577515,-1.28991 -1.289913,-1.289913 z"
             sodipodi:nodetypes="sccsccs" />
        </g>
        <path
           style="fill:none;stroke:#241f31;stroke-width:1.20001;stroke-linecap:round;stroke-miterlimit:3.2;stroke-dasharray:none;stroke-opacity:1"
           d="m 60.060419,47.411618 c 0.0054,-0.0024 1.109289,-1.003773 2.505477,-1.004685 1.376147,-8.99e-4 2.521606,1.004685 2.521606,1.004685"
           id="path77"
           sodipodi:nodetypes="csc" />
      </g>
      <g
         id="g80"
         transform="translate(-0.94833072,-0.17511433)">
        <g
           id="g79">
          <path
             id="path78"
             style="fill:#ffffff;stroke:none;stroke-width:2.5;stroke-linecap:round;stroke-miterlimit:3.2;stroke-dasharray:none;stroke-opacity:1"
             d="m 73.212587,48.815041 c -1.126476,5e-6 -2.039664,0.913193 -2.039668,2.039669 v 2.357479 c 4e-6,1.126476 0.913192,2.039664 2.039668,2.039669 1.126476,-4e-6 2.039665,-0.913193 2.039669,-2.039669 V 50.85471 c -4e-6,-1.126476 -0.913193,-2.039665 -2.039669,-2.039669 z"
             sodipodi:nodetypes="sccsccs" />
          <path
             id="path79"
             style="fill:#3d3846;stroke:none;stroke-width:1.58103;stroke-linecap:round;stroke-miterlimit:3.2;stroke-dasharray:none;stroke-opacity:1"
             d="m 73.212587,49.998086 c -0.712398,3e-6 -1.28991,0.577515 -1.289912,1.289913 V 52.7789 c 2e-6,0.712398 0.577514,1.28991 1.289912,1.289913 0.712398,-3e-6 1.289911,-0.577515 1.289913,-1.289913 v -1.490901 c -2e-6,-0.712398 -0.577515,-1.28991 -1.289913,-1.289913 z"
             sodipodi:nodetypes="sccsccs" />
        </g>
        <path
           style="fill:none;stroke:#241f31;stroke-width:1.20001;stroke-linecap:round;stroke-miterlimit:3.2;stroke-dasharray:none;stroke-opacity:1"
           d="m 70.699046,47.411618 c 0.0054,-0.0024 1.109289,-1.003773 2.505477,-1.004685 1.376147,-8.99e-4 2.521606,1.004685 2.521606,1.004685"
           id="path80"
           sodipodi:nodetypes="csc" />
      </g>
      <g
         id="g94"
         transform="matrix(-1,0,0,1,135.6326,0)"
         style="fill:#e5a50a">
        <path
           id="path94"
           style="fill:#e5a50a;stroke:none;stroke-width:1.71875;stroke-linecap:round;stroke-miterlimit:3.2;stroke-dasharray:none;stroke-opacity:1"
           d="m 67.733336,54.801824 c -4.848889,0 -1.464956,8.140133 0,8.137604 z"
           sodipodi:nodetypes="ccc" />
      </g>
    </g>
  </g>
</svg>
